<?xml version="1.0" encoding="UTF-8" standalone="no"?>
<!-- Created with Inkscape (http://www.inkscape.org/) -->

<svg
   width="153.48915mm"
   height="101.72113mm"
   viewBox="0 0 153.48915 101.72113"
   version="1.1"
   id="svg5"
   class="controller-svg"
   xml:space="preserve"
   inkscape:version="1.2.2 (b0a8486541, 2022-12-01)"
   sodipodi:docname="ps5.svg"
   xmlns:inkscape="http://www.inkscape.org/namespaces/inkscape"
   xmlns:sodipodi="http://sodipodi.sourceforge.net/DTD/sodipodi-0.dtd"
   xmlns:xlink="http://www.w3.org/1999/xlink"
   xmlns="http://www.w3.org/2000/svg"
   xmlns:svg="http://www.w3.org/2000/svg"><sodipodi:namedview
     id="namedview7"
     pagecolor="#ffffff"
     bordercolor="#999999"
     borderopacity="1"
     inkscape:showpageshadow="0"
     inkscape:pageopacity="0"
     inkscape:pagecheckerboard="0"
     inkscape:deskcolor="#d1d1d1"
     inkscape:document-units="mm"
     showgrid="false"
     inkscape:zoom="1"
     inkscape:cx="4.5"
     inkscape:cy="464.5"
     inkscape:window-width="3840"
     inkscape:window-height="1539"
     inkscape:window-x="0"
     inkscape:window-y="30"
     inkscape:window-maximized="1"
     inkscape:current-layer="layer4" /><defs
     id="defs2"><inkscape:path-effect
       effect="spiro"
       id="path-effect13453"
       is_visible="true"
       lpeversion="1" /><inkscape:path-effect
       effect="spiro"
       id="path-effect13015"
       is_visible="true"
       lpeversion="1" /><inkscape:path-effect
       effect="spiro"
       id="path-effect12847"
       is_visible="true"
       lpeversion="1" /><inkscape:path-effect
       effect="spiro"
       id="path-effect12837"
       is_visible="true"
       lpeversion="1" /><inkscape:path-effect
       effect="spiro"
       id="path-effect12827"
       is_visible="true"
       lpeversion="1" /><inkscape:path-effect
       effect="spiro"
       id="path-effect12055"
       is_visible="true"
       lpeversion="1" /><linearGradient
       inkscape:collect="always"
       id="linearGradient11985"><stop
         style="stop-color:#373737;stop-opacity:1;"
         offset="0.65975493"
         id="stop11981" /><stop
         style="stop-color:#393939;stop-opacity:1;"
         offset="0.90386426"
         id="stop11989" /><stop
         style="stop-color:#424242;stop-opacity:1;"
         offset="1"
         id="stop11983" /></linearGradient><inkscape:path-effect
       effect="spiro"
       id="path-effect11059"
       is_visible="true"
       lpeversion="1" /><inkscape:path-effect
       effect="spiro"
       id="path-effect11055"
       is_visible="true"
       lpeversion="1" /><inkscape:path-effect
       effect="spiro"
       id="path-effect10978"
       is_visible="true"
       lpeversion="1" /><inkscape:path-effect
       effect="spiro"
       id="path-effect10971"
       is_visible="true"
       lpeversion="1" /><linearGradient
       id="linearGradient10840"
       inkscape:swatch="solid"><stop
         style="stop-color:#000000;stop-opacity:1;"
         offset="0"
         id="stop10838" /></linearGradient><radialGradient
       inkscape:collect="always"
       xlink:href="#linearGradient11985"
       id="radialGradient11987"
       cx="80.686241"
       cy="113.12246"
       fx="80.686241"
       fy="113.12246"
       r="9.000001"
       gradientUnits="userSpaceOnUse"
       gradientTransform="matrix(0.88373274,0,0,0.88373248,9.3331006,13.104397)" /><radialGradient
       inkscape:collect="always"
       xlink:href="#linearGradient11985"
       id="radialGradient11993"
       gradientUnits="userSpaceOnUse"
       gradientTransform="matrix(0.88373274,0,0,0.88373248,58.526409,13.104602)"
       cx="80.686241"
       cy="113.12246"
       fx="80.686241"
       fy="113.12246"
       r="9.000001" /></defs>

       <g
     inkscape:groupmode="layer"
     id="layer6"
     inkscape:label="Rear Buttons"
     transform="translate(-28.440779,-62.585127)"><path
       style="fill:#000000;fill-opacity:1;stroke:#ccc;stroke-width:0.4;stroke-linecap:butt;stroke-linejoin:bevel;stroke-dasharray:none;stroke-dashoffset:0;stroke-opacity:1;paint-order:normal"
       d="m 142.875,64.107713 c 0.009,-0.06646 0.0238,-0.132182 0.0434,-0.196369 0.0264,-0.08669 0.0624,-0.171067 0.11325,-0.246075 0.0509,-0.07501 0.11721,-0.14053 0.19681,-0.183873 0.0803,-0.04372 0.17102,-0.06365 0.26044,-0.08268 1.96538,-0.418271 3.97507,-0.646312 5.98413,-0.609782 2.40173,0.04367 4.79799,0.467897 7.06107,1.273307 1.90246,0.677069 3.70015,1.617179 5.45703,2.61276 0.16712,0.0947 0.33446,0.190279 0.48783,0.305925 0.11254,0.08486 0.21807,0.181338 0.29766,0.297656 0.0334,0.04879 0.0618,0.101274 0.0809,0.157222 0.0191,0.05595 0.0279,0.114807 0.0349,0.173507 l 0.28939,2.422591 -20.6127,-3.745508 0.30593,-2.178679 z"
       id="path13013"
       inkscape:path-effect="#path-effect13015"
       inkscape:original-d="m 142.875,64.107713 c 0.10171,-0.726491 0.0292,-0.130649 0.0434,-0.196369 0.0142,-0.06572 0.20697,-0.286369 0.31006,-0.429948 0.10308,-0.143581 0.17389,-0.05486 0.26044,-0.08268 0.0866,-0.02783 3.98969,-0.406257 5.98413,-0.609782 1.99445,-0.203526 4.70765,0.849135 7.06107,1.273307 2.35343,0.424172 3.63829,1.742104 5.45703,2.61276 1.81875,0.870657 0.32549,0.204214 0.48783,0.305925 0.16234,0.101711 0.1987,0.198702 0.29766,0.297656 0.099,0.09895 0.11575,0.330729 0.11575,0.330729 0,0 0.28939,2.422591 0.28939,2.422591 0,0 -20.6127,-3.745508 -20.6127,-3.745508 0,0 0.20422,-1.452186 0.30593,-2.178679 z"
       inkscape:label="rightBumper" /><path
       style="fill:#000000;fill-opacity:1;stroke:#ccc;stroke-width:0.4;stroke-linecap:butt;stroke-linejoin:bevel;stroke-dasharray:none;stroke-dashoffset:0;stroke-opacity:1;paint-order:normal"
       d="m 67.478353,64.13878 c -0.0093,-0.06646 -0.02383,-0.132182 -0.0434,-0.196369 -0.02644,-0.08669 -0.06237,-0.171067 -0.113248,-0.246075 -0.05088,-0.07501 -0.117212,-0.14053 -0.196812,-0.183873 -0.08029,-0.04372 -0.171022,-0.06365 -0.26044,-0.08268 -1.965375,-0.418271 -3.975071,-0.646312 -5.98413,-0.609782 -2.401732,0.04367 -4.797988,0.467897 -7.06107,1.273307 -1.902464,0.677069 -3.700155,1.617179 -5.45703,2.61276 -0.167117,0.0947 -0.33446,0.190279 -0.48783,0.305925 -0.112536,0.08486 -0.218068,0.181338 -0.29766,0.297656 -0.03338,0.04879 -0.06176,0.101274 -0.08085,0.157222 -0.0191,0.05595 -0.02788,0.114807 -0.03489,0.173507 l -0.28939,2.422591 20.6127,-3.745508 -0.30593,-2.178679 z"
       id="path13449"
       inkscape:path-effect="#path-effect13453"
       inkscape:original-d="m 67.478353,64.13878 c -0.10171,-0.726491 -0.0292,-0.130649 -0.0434,-0.196369 -0.0142,-0.06572 -0.20697,-0.286369 -0.31006,-0.429948 -0.10308,-0.143581 -0.17389,-0.05486 -0.26044,-0.08268 -0.0866,-0.02783 -3.98969,-0.406257 -5.98413,-0.609782 -1.99445,-0.203526 -4.70765,0.849135 -7.06107,1.273307 -2.35343,0.424172 -3.63829,1.742104 -5.45703,2.61276 -1.81875,0.870657 -0.32549,0.204214 -0.48783,0.305925 -0.16234,0.101711 -0.1987,0.198702 -0.29766,0.297656 -0.099,0.09895 -0.11575,0.330729 -0.11575,0.330729 0,0 -0.28939,2.422591 -0.28939,2.422591 0,0 20.6127,-3.745508 20.6127,-3.745508 0,0 -0.20422,-1.452186 -0.30593,-2.178679 z"
       inkscape:label="leftBumper" /></g><g
     inkscape:groupmode="layer"
     id="layer4"
     inkscape:label="Shell"
     style="display:inline"
     transform="translate(-28.440779,-62.585127)"><path
       style="display:inline;fill:#000000;fill-opacity:1;stroke:none;stroke-width:0.4;stroke-linecap:butt;stroke-linejoin:bevel;stroke-dasharray:none;stroke-dashoffset:0;stroke-opacity:1;paint-order:normal"
       d="m 41.374218,162.99987 7.557162,1.30638 c 0.145528,-0.023 0.286614,-0.0738 0.413411,-0.14883 0.2119,-0.12539 0.38243,-0.31944 0.479557,-0.5457 0.770245,-1.99619 1.549693,-3.98882 2.338311,-5.97782 0.603432,-1.52193 1.212231,-3.04173 1.824114,-4.56029 0.546172,-1.35547 1.09482,-2.71 1.660411,-4.05749 0.729566,-1.73815 1.487269,-3.46444 2.268451,-5.18001 0.489189,-1.07432 0.987634,-2.14453 1.508402,-3.2039 0.421452,-0.85734 0.8575,-1.70752 1.309622,-2.54908 0.546535,-1.0173 1.116906,-2.02258 1.742262,-2.99342 0.625984,-0.97182 1.308484,-1.9106 2.093056,-2.75956 0.624909,-0.67619 1.313578,-1.29393 2.057974,-1.8358 0.700269,-0.50975 1.450695,-0.95268 2.245063,-1.29793 0.603293,-0.2622 1.230901,-0.46765 1.870888,-0.61974 0.819546,-0.19476 1.660051,-0.30207 2.50231,-0.31571 0.535347,-0.009 1.071552,0.0205 1.601949,0.0936 0.669587,0.0924 1.327242,0.25433 1.987817,0.39756 0.788202,0.17091 1.583046,0.31553 2.38538,0.39757 1.459242,0.14921 2.930777,0.0904 4.396584,0.0351 1.391162,-0.0525 2.782522,-0.1018 4.174416,-0.12862 2.478536,-0.0478 4.957809,-0.0243 7.436773,-0.0117 4.014568,0.0204 8.029229,0.0122 12.043829,0.0234 4.27966,0.012 8.55942,0.046 12.83896,0.0117 1.74628,-0.014 3.49328,-0.0393 5.23849,0.0234 1.13047,0.0406 2.25983,0.11822 3.39098,0.12862 0.81967,0.008 1.64025,-0.0203 2.45554,-0.10523 1.08894,-0.11345 2.1644,-0.32825 3.23897,-0.53788 0.56243,-0.10972 1.12587,-0.21822 1.69549,-0.28064 1.03548,-0.11347 2.08838,-0.073 3.11035,0.12863 1.85732,0.36648 3.58998,1.2638 5.05139,2.46723 1.63058,1.34274 2.92596,3.04991 4.0458,4.84092 0.97874,1.56533 1.8341,3.20463 2.64262,4.8643 0.75544,1.55072 1.47086,3.12071 2.16322,4.70061 1.04931,2.39442 2.0457,4.81163 3.07527,7.2146 0.85711,2.00045 1.73843,3.99418 2.43215,6.057 0.42255,1.25647 0.77746,2.54331 1.36809,3.73008 0.28636,0.57539 0.62583,1.12238 0.95882,1.6721 0.0219,0.0361 0.0438,0.0723 0.0702,0.10524 0.0648,0.0808 0.15655,0.13953 0.25701,0.16465 0.10046,0.0251 0.20907,0.0164 0.30426,-0.0243 2.37155,-0.42187 4.7495,-0.8078 7.13275,-1.15761 0.21433,-0.0315 0.4287,-0.0626 0.64312,-0.0935 -0.23473,-0.0955 -0.45875,-0.21735 -0.6665,-0.36248 -0.6544,-0.45714 -1.12746,-1.1291 -1.5201,-1.82412 -0.24618,-0.43576 -0.46625,-0.88602 -0.6665,-1.3447 -0.54578,-1.25011 -0.94301,-2.55878 -1.35639,-3.8587 -0.51099,-1.60687 -1.04842,-3.20519 -1.57857,-4.80584 -0.52201,-1.57607 -1.03699,-3.15454 -1.57856,-4.72399 -0.81554,-2.36341 -1.69124,-4.70597 -2.61924,-7.02752 -0.86706,-2.1691 -1.7797,-4.31967 -2.70109,-6.46625 -0.96351,-2.24471 -1.93697,-4.48592 -2.99342,-6.68842 -0.71395,-1.48845 -1.4655,-2.95861 -2.23337,-4.41997 -0.6044,-1.15027 -1.21902,-2.29531 -1.85919,-3.42606 -0.83158,-1.46886 -1.70591,-2.913 -2.57247,-4.3615 -0.79805,-1.33399 -1.5901,-2.67265 -2.45554,-3.96394 -1.23856,-1.84803 -2.62404,-3.59387 -4.06918,-5.28526 -1.26318,-1.47844 -2.574,-2.91799 -3.76516,-4.455049 -0.43084,-0.55595 -0.84576,-1.124345 -1.23946,-1.707185 -0.56845,-0.841538 -1.09447,-1.716886 -1.48502,-2.654321 -0.71873,-1.725159 -0.95992,-3.646449 -0.68989,-5.495729 -0.15113,1.088728 -0.44686,2.157294 -0.87697,3.168814 -0.69503,1.634547 -1.75427,3.128584 -3.14543,4.232881 -1.32536,1.052058 -2.94066,1.734986 -4.61875,1.952739 L 86.294687,99.320853 c -0.555544,-0.07457 -1.104252,-0.199986 -1.637025,-0.374176 -1.837715,-0.600839 -3.462068,-1.783416 -4.699666,-3.268864 -1.237598,-1.485448 -2.097816,-3.265199 -2.62018,-5.126741 -0.20876,-0.743956 -0.36518,-1.502593 -0.46772,-2.26845 0.181754,0.852692 0.275952,1.724021 0.280633,2.595856 0.01119,2.083711 -0.497473,4.169111 -1.473324,6.010222 -0.565661,1.067217 -1.281603,2.047147 -2.023981,2.999933 -1.654141,2.122967 -3.451633,4.130927 -5.109765,6.250777 -1.671973,2.13755 -3.199303,4.38519 -4.646745,6.68073 -1.865847,2.9591 -3.600943,6.00058 -5.200716,9.11159 -1.298424,2.52499 -2.50741,5.09507 -3.679362,7.68119 -1.854703,4.09273 -3.61812,8.22899 -5.175911,12.44368 -1.209931,3.27354 -2.294822,6.59164 -3.389974,9.90534 -0.754878,2.28411 -1.514882,4.56684 -2.331641,6.82956 -0.21543,0.59682 -0.435427,1.19368 -0.719336,1.76113 -0.206028,0.41179 -0.44603,0.80804 -0.735872,1.16582 -0.292587,0.36117 -0.637184,0.68322 -1.033529,0.92604 -0.168368,0.10315 -0.345627,0.19178 -0.529166,0.26459 l 0.272851,0.0909 z"
       id="path11057"
       inkscape:path-effect="#path-effect11059"
       inkscape:original-d="m 41.374218,162.99987 c 0.09069,0.0301 7.557162,1.30638 7.557162,1.30638 0,0 0.275873,-0.099 0.413411,-0.14883 0.137538,-0.0499 0.479557,-0.5457 0.479557,-0.5457 0,0 1.55914,-3.98495 2.338311,-5.97782 0.779172,-1.99288 1.21634,-3.03993 1.824114,-4.56029 0.607775,-1.52036 1.107207,-2.70473 1.660411,-4.05749 0.553207,-1.35276 1.512565,-3.45308 2.268451,-5.18001 0.755885,-1.72694 1.005866,-2.13567 1.508402,-3.2039 0.502537,-1.06823 0.873345,-1.69912 1.309622,-2.54908 0.436274,-0.84996 1.161772,-1.99535 1.742262,-2.99342 0.580491,-0.99807 1.395635,-1.83944 2.093056,-2.75956 0.69742,-0.92011 1.372248,-1.2236 2.057974,-1.8358 0.685728,-0.61221 1.496975,-0.86503 2.245063,-1.29793 0.748091,-0.43291 1.247524,-0.41289 1.870888,-0.61974 0.623363,-0.20684 1.668473,-0.2102 2.50231,-0.31571 0.833839,-0.1055 1.068231,0.0626 1.601949,0.0936 0.533717,0.0309 1.325475,0.26531 1.987817,0.39756 0.662339,0.13226 1.590516,0.26531 2.38538,0.39757 0.794861,0.13225 2.931319,0.0237 4.396584,0.0351 1.465262,0.0114 2.783207,-0.0855 4.174416,-0.12862 1.391205,-0.0431 4.958114,-0.008 7.436773,-0.0117 2.478662,-0.004 8.029489,0.0159 12.043829,0.0234 4.01435,0.008 8.55958,0.008 12.83896,0.0117 4.27939,0.004 3.49259,0.0159 5.23849,0.0234 1.74589,0.008 2.26092,0.086 3.39098,0.12862 1.13006,0.0426 1.63729,-0.0699 2.45554,-0.10523 0.81825,-0.0353 2.15958,-0.35833 3.23897,-0.53788 1.07939,-0.17956 1.13059,-0.18683 1.69549,-0.28064 0.5649,-0.0938 2.07383,0.086 3.11035,0.12863 1.03652,0.0426 3.36786,1.64508 5.05139,2.46723 1.68354,0.82215 2.69746,3.22754 4.0458,4.84092 1.34833,1.61337 1.76201,3.24313 2.64262,4.8643 0.88062,1.62117 1.44241,3.134 2.16322,4.70061 0.7208,1.5666 2.05044,4.81 3.07527,7.2146 1.02482,2.40461 1.6217,4.03826 2.43215,6.057 0.81045,2.01873 0.91232,2.48698 1.36809,3.73008 0.45576,1.24309 0.63948,1.115 0.95882,1.6721 0.31935,0.55711 0.047,0.0704 0.0702,0.10524 0.0231,0.0348 0.56127,0.14032 0.56127,0.14032 0,0 7.13275,-1.15761 7.13275,-1.15761 0,0 0.64312,-0.0935 0.64312,-0.0935 0,0 -0.44407,-0.24139 -0.6665,-0.36248 -0.22244,-0.12109 -1.01313,-1.21581 -1.5201,-1.82412 -0.50696,-0.6083 -0.44407,-0.8962 -0.6665,-1.3447 -0.22243,-0.44849 -0.904,-2.5722 -1.35639,-3.8587 -0.4524,-1.2865 -1.05211,-3.20363 -1.57857,-4.80584 -0.52644,-1.60221 -1.0521,-3.14906 -1.57856,-4.72399 -0.52645,-1.57493 -1.74589,-4.68475 -2.61924,-7.02752 -0.87334,-2.34277 -1.80046,-4.31057 -2.70109,-6.46625 -0.90063,-2.15568 -1.99535,-4.45868 -2.99342,-6.68842 -0.99807,-2.22974 -1.48865,-2.94638 -2.23337,-4.41997 -0.74472,-1.47359 -1.2392,-2.28377 -1.85919,-3.42606 -0.62,-1.14229 -1.71472,-2.90741 -2.57247,-4.3615 -0.85776,-1.4541 -1.63676,-2.64237 -2.45554,-3.96394 -0.81878,-1.32158 -2.71252,-3.52324 -4.06918,-5.28526 -1.35666,-1.76202 -2.50984,-2.96977 -3.76516,-4.455049 -1.25532,-1.485281 -0.82604,-1.137857 -1.23946,-1.707185 -0.41342,-0.569325 -0.98975,-1.769282 -1.48502,-2.654321 -0.49527,-0.885036 -0.68989,-5.495729 -0.68989,-5.495729 0,0 -0.58438,2.112809 -0.87697,3.168814 -0.29259,1.056008 -2.09669,2.822186 -3.14543,4.232881 -1.04874,1.410697 -4.61875,1.952739 -4.61875,1.952739 0,0 -38.399953,-0.140317 -38.399953,-0.140317 0,0 -1.091086,-0.249187 -1.637025,-0.374176 -0.545941,-0.124992 -4.879631,-5.596805 -7.319846,-8.395605 -2.440212,-2.798799 -0.46772,-2.26845 -0.46772,-2.26845 0,0 0.187352,1.730835 0.280633,2.595856 0.09328,0.865021 -0.98195,4.00708 -1.473324,6.010222 -0.491371,2.003145 -1.349055,2.000221 -2.023981,2.999933 -0.674925,0.999717 -3.406245,4.167457 -5.109765,6.250777 -1.70352,2.08333 -3.097564,4.45409 -4.646745,6.68073 -1.54918,2.22665 -3.46688,6.07466 -5.200716,9.11159 -1.733836,3.03693 -2.452642,5.12106 -3.679362,7.68119 -1.226719,2.56013 -3.450344,8.29605 -5.175911,12.44368 -1.725568,4.14763 -2.259719,6.60382 -3.389974,9.90534 -1.130255,3.30152 -1.554163,4.5533 -2.331641,6.82956 -0.777478,2.27625 -0.479292,1.17435 -0.719336,1.76113 -0.240043,0.58678 -0.490318,0.77748 -0.735872,1.16582 -0.245555,0.38834 -0.688755,0.61762 -1.033529,0.92604 -0.344773,0.30842 -0.529166,0.26459 -0.529166,0.26459 0,0 0.182165,0.0609 0.272851,0.0909 z"
       inkscape:label="blackbody" /><path
       style="display:inline;fill:#ffffff;fill-opacity:1;stroke:#ccc;stroke-width:0.4;stroke-linecap:butt;stroke-linejoin:bevel;stroke-dasharray:none;stroke-dashoffset:0;stroke-opacity:1;paint-order:normal"
       d="m 38.750758,162.77364 c -1.063601,-0.50068 -2.062754,-1.13807 -2.965095,-1.89153 -2.439154,-2.03671 -4.118846,-4.88921 -5.061117,-7.92397 -0.501472,-1.61509 -0.8048,-3.28478 -1.05814,-4.95684 -1.190682,-7.85858 -1.298246,-15.86531 -0.56224,-23.77943 0.623788,-6.70746 1.849567,-13.34811 3.373438,-19.90989 1.686757,-7.263164 3.745355,-14.455589 6.548437,-21.365106 1.713905,-4.224726 3.703916,-8.337417 5.953125,-12.303125 2.684606,-0.723912 5.388269,-1.377153 8.107243,-1.958821 4.738734,-1.013753 9.523994,-1.809996 14.33567,-2.385383 0.55863,-0.01841 1.119885,0.04483 1.660412,0.187089 0.983253,0.258775 1.895381,0.782689 2.614322,1.501629 0.71894,0.718941 1.242853,1.631069 1.501628,2.614322 l 3.484526,16.510574 c 0.164178,0.898233 0.289063,1.803647 0.374176,2.712786 0.09487,1.0134 0.140081,2.037857 0.0069,3.046937 -0.20296,1.537785 -0.816166,2.99813 -1.599901,4.336687 -0.761309,1.300255 -1.684262,2.498676 -2.645833,3.658691 -1.057607,1.27587 -2.165012,2.50993 -3.216341,3.79098 -2.236886,2.72565 -4.213573,5.65649 -6.052344,8.66511 -2.665895,4.36196 -5.04714,8.89378 -7.242968,13.51028 -2.386844,5.01809 -4.556458,10.13955 -6.498828,15.34584 -1.754366,4.70237 -3.322738,9.47193 -4.845183,14.25442 -0.400702,1.25874 -0.79982,2.52252 -1.355989,3.72071 -0.18302,0.39429 -0.383422,0.78191 -0.628386,1.14101 -0.444253,0.65124 -1.045306,1.20964 -1.769401,1.52136 -0.585075,0.25187 -1.250421,0.33546 -1.868619,0.1819 -0.204774,-0.0509 -0.403248,-0.12704 -0.589476,-0.22623 z"
       id="path10969"
       inkscape:path-effect="#path-effect10971"
       inkscape:original-d="m 38.750758,162.77364 c -0.196755,-0.0757 -1.976466,-1.26076 -2.965095,-1.89153 -0.988632,-0.63077 -3.373813,-5.28238 -5.061117,-7.92397 -1.687303,-2.64158 -0.705162,-3.30429 -1.05814,-4.95684 -0.352978,-1.65254 -0.374563,-15.85269 -0.56224,-23.77943 -0.187677,-7.92674 2.249223,-13.273 3.373438,-19.90989 1.124214,-6.636898 4.365889,-14.243139 6.548437,-21.365106 2.182548,-7.121967 5.953125,-12.303125 5.953125,-12.303125 0,0 5.405094,-1.305618 8.107243,-1.958821 2.70215,-0.653206 14.33567,-2.385383 14.33567,-2.385383 0,0 1.107205,0.124992 1.660412,0.187089 0.553206,0.0621 4.11595,4.115951 4.11595,4.115951 0,0 3.484526,16.510574 3.484526,16.510574 0,0 0.249716,1.80879 0.374176,2.712786 0.124463,0.904 0.0048,2.031556 0.0069,3.046937 0.0021,1.015383 -1.066337,2.89139 -1.599901,4.336687 -0.533566,1.445297 -1.763625,2.439392 -2.645833,3.658691 -0.882208,1.2193 -2.143964,2.52759 -3.216341,3.79098 -1.072377,1.2634 -4.034631,5.777 -6.052344,8.66511 -2.017712,2.8881 -4.828381,9.00712 -7.242968,13.51028 -2.414588,4.50317 -4.332288,10.23082 -6.498828,15.34584 -2.166541,5.11501 -3.229856,9.50321 -4.845183,14.25442 -1.615326,4.75121 -0.903729,2.48074 -1.355989,3.72071 -0.45226,1.23997 -0.418658,0.76094 -0.628386,1.14101 -0.209727,0.38008 -1.179335,1.0145 -1.769401,1.52136 -0.590065,0.50685 -1.245481,0.12153 -1.868619,0.1819 -0.623139,0.0604 -0.392719,-0.15056 -0.589476,-0.22623 z"
       inkscape:label="leftGrip" /><path
       style="display:inline;fill:#ffffff;fill-opacity:1;stroke:#ccc;stroke-width:0.4;stroke-linecap:butt;stroke-linejoin:bevel;stroke-dasharray:none;stroke-dashoffset:0;stroke-opacity:1;paint-order:normal"
       d="m 171.61996,162.96073 c 1.0636,-0.50068 2.06276,-1.13807 2.9651,-1.89153 2.43915,-2.03671 4.11884,-4.88921 5.06111,-7.92397 0.50147,-1.61509 0.8048,-3.28478 1.05814,-4.95684 1.19068,-7.85858 1.29824,-15.86531 0.56224,-23.77943 -0.62379,-6.70746 -1.84956,-13.34811 -3.37343,-19.90989 -1.68675,-7.263165 -3.74536,-14.45559 -6.54844,-21.365107 -1.71391,-4.224726 -3.70392,-8.337417 -5.95313,-12.303125 -2.68461,-0.723912 -5.38827,-1.377154 -8.10724,-1.958821 -4.73873,-1.013753 -9.52399,-1.809996 -14.33567,-2.385383 -0.55863,-0.01841 -1.11988,0.04483 -1.66041,0.187089 -0.98325,0.258775 -1.89538,0.782689 -2.61432,1.501629 -0.71894,0.718941 -1.24286,1.631069 -1.50163,2.614322 l -3.48453,16.510574 c -0.16415,0.898237 -0.28904,1.80365 -0.37417,2.712786 -0.0949,1.013398 -0.14016,2.037853 -0.007,3.046937 0.20292,1.537791 0.81616,2.998133 1.5999,4.336687 0.76132,1.30025 1.68426,2.498676 2.64583,3.658692 1.0576,1.27587 2.16501,2.50993 3.21634,3.79098 2.23689,2.72565 4.21358,5.65649 6.05235,8.66511 2.66589,4.36196 5.04714,8.89378 7.24296,13.51028 2.38684,5.01809 4.55645,10.13955 6.49883,15.34584 1.75437,4.70237 3.32276,9.47192 4.84519,14.25442 0.4007,1.25874 0.79981,2.52252 1.35598,3.72071 0.18302,0.39429 0.38342,0.78191 0.62839,1.14101 0.44425,0.65124 1.04531,1.20964 1.7694,1.52136 0.58508,0.25187 1.25042,0.33546 1.86862,0.1819 0.20477,-0.0509 0.40325,-0.12704 0.58948,-0.22623 z"
       id="path10974"
       inkscape:path-effect="#path-effect10978"
       inkscape:original-d="m 171.61996,162.96073 c 0.19676,-0.0757 1.97647,-1.26076 2.9651,-1.89153 0.98863,-0.63077 3.37381,-5.28238 5.06111,-7.92397 1.68731,-2.64158 0.70517,-3.30429 1.05814,-4.95684 0.35298,-1.65254 0.37457,-15.85269 0.56224,-23.77943 0.18768,-7.92674 -2.24922,-13.273 -3.37343,-19.90989 -1.12422,-6.636899 -4.36589,-14.24314 -6.54844,-21.365107 -2.18255,-7.121967 -5.95313,-12.303125 -5.95313,-12.303125 0,0 -5.40509,-1.305618 -8.10724,-1.958821 -2.70215,-0.653206 -14.33567,-2.385383 -14.33567,-2.385383 0,0 -1.1072,0.124992 -1.66041,0.187089 -0.55321,0.0621 -4.11595,4.115951 -4.11595,4.115951 0,0 -3.48453,16.510574 -3.48453,16.510574 0,0 -0.24971,1.80879 -0.37417,2.712786 -0.12447,0.904 -0.005,2.031556 -0.007,3.046937 -0.002,1.015383 1.06633,2.89139 1.5999,4.336687 0.53356,1.445297 1.76362,2.439392 2.64583,3.658692 0.88221,1.2193 2.14397,2.52759 3.21634,3.79098 1.07238,1.2634 4.03463,5.777 6.05235,8.66511 2.01771,2.8881 4.82838,9.00712 7.24296,13.51028 2.41459,4.50317 4.33229,10.23082 6.49883,15.34584 2.16654,5.11501 3.22986,9.50321 4.84519,14.25442 1.61532,4.75121 0.90372,2.48074 1.35598,3.72071 0.45226,1.23997 0.41866,0.76094 0.62839,1.14101 0.20973,0.38008 1.17934,1.0145 1.7694,1.52136 0.59007,0.50685 1.24548,0.12153 1.86862,0.1819 0.62314,0.0604 0.39272,-0.15056 0.58948,-0.22623 z"
       inkscape:label="rightGrip" /><path
       style="fill:#ffffff;fill-opacity:1;stroke:#ccc;stroke-width:0.4;stroke-linecap:butt;stroke-linejoin:bevel;stroke-dasharray:none;stroke-dashoffset:0;stroke-opacity:1;paint-order:normal"
       d="m 74.800388,71.105386 c -0.06934,-0.4145 -0.120074,-0.832112 -0.152009,-1.251156 -0.05676,-0.744737 -0.05226,-1.506683 0.163701,-2.221677 0.0547,-0.181106 0.122862,-0.358511 0.210476,-0.526188 0.344688,-0.659671 0.975805,-1.134505 1.660411,-1.426551 0.70225,-0.299573 1.46483,-0.425776 2.221677,-0.526185 1.598297,-0.212042 3.2084,-0.31993 4.817533,-0.420949 6.735722,-0.422858 13.480317,-0.727767 20.228963,-0.795129 6.10688,-0.06096 12.21691,0.07273 18.3113,0.467723 3.34208,0.216611 6.67887,0.511751 10.00925,0.865285 0.18751,0.0199 0.37512,0.04001 0.56126,0.07016 0.46093,0.07466 0.91428,0.212156 1.32448,0.435261 0.41019,0.223106 0.77653,0.533941 1.03752,0.921133 0.34225,0.507745 0.49035,1.122363 0.56126,1.730569 0.12193,1.045773 -0.0179,2.103273 -0.23386,3.133735 l -3.97563,18.966114 c -0.10214,0.503435 -0.25111,0.997361 -0.44434,1.473324 -0.55387,1.364258 -1.47796,2.576122 -2.647,3.471292 -1.16903,0.895169 -2.57993,1.471293 -4.04142,1.650261 H 87.066389 c -0.382143,0 -0.764171,0.04076 -1.145919,0.02339 -0.363846,-0.01656 -0.719656,-0.110224 -1.067771,-0.217342 C 83.784533,96.599772 82.74879,96.13373 81.859601,95.456711 81.167374,94.929657 80.569874,94.27759 80.110871,93.538482 79.734504,92.932438 79.453014,92.273058 79.18483,91.611985 76.543692,85.101589 75.052395,78.126601 74.800388,71.105393 Z"
       id="path11053"
       inkscape:path-effect="#path-effect11055"
       inkscape:original-d="m 74.800388,71.105386 c -1.461747,-6.835796 -0.101077,-0.833839 -0.152009,-1.251156 -0.05094,-0.417314 0.109397,-1.480852 0.163701,-2.221677 0.0543,-0.740823 0.140581,-0.350526 0.210476,-0.526188 0.06989,-0.175659 1.107204,-0.950769 1.660411,-1.426551 0.553207,-0.475782 2.221677,-0.526185 2.221677,-0.526185 0,0 3.211954,-0.280368 4.817533,-0.420949 1.605582,-0.140581 13.486241,-0.52982 20.228963,-0.795129 6.74272,-0.265305 12.2078,0.312079 18.3113,0.467723 6.10351,0.155641 6.6731,0.577119 10.00925,0.865285 3.33615,0.288163 0.37444,0.04703 0.56126,0.07016 0.18683,0.02312 1.57493,0.904528 2.362,1.356394 0.78707,0.451866 0.37444,1.153978 0.56126,1.730569 0.18683,0.576593 -0.23386,3.133735 -0.23386,3.133735 0,0 -3.97563,18.966114 -3.97563,18.966114 0,0 -0.29596,0.98248 -0.44434,1.473324 -0.14837,0.490842 -6.68842,5.121553 -6.68842,5.121553 0,0 -37.347571,0 -37.347571,0 0,0 -0.763683,0.01585 -1.145919,0.02339 -0.382238,0.0075 -0.711581,-0.144632 -1.067771,-0.217342 -0.356187,-0.07271 -1.995133,-0.980898 -2.993098,-1.471745 -0.997964,-0.490847 -1.165556,-1.278554 -1.74873,-1.918229 -0.583176,-0.639675 -0.926041,-1.926497 -0.926041,-1.926497 0,0 -2.922696,-13.670796 -4.384442,-20.506592 z"
       inkscape:label="sensePad" /></g><g
     inkscape:groupmode="layer"
     id="layer2"
     inkscape:label="Right Buttons"
     transform="translate(-28.440779,-62.585127)"><g
       id="g12882"
       class="controller-button"
       data-button-name="X"
       inkscape:label="x"><ellipse
         style="display:inline;mix-blend-mode:multiply;stroke-width:0.4;stroke-linecap:butt;stroke-linejoin:bevel;stroke-dasharray:none;stroke-dashoffset:0;stroke-opacity:1;paint-order:normal"
         id="path488"
         ry="4.9985766"
         rx="4.9898057"
         cy="103.30849"
         cx="152.94936"
         class="outline"
         inkscape:label="xButton" /><path
         id="path13002"
         style="fill:none;fill-opacity:1;stroke-width:0.4;stroke-linecap:butt;stroke-linejoin:bevel;stroke-dasharray:none;stroke-dashoffset:0;stroke-opacity:1;paint-order:normal"
         d="m 155.36545,101.02203 -4.85846,4.84677 m 0.006,-4.85261 4.84677,4.85846"
         class="icon"
         inkscape:label="icon" /></g><g
       id="g12879"
       class="controller-button"
       data-button-name="SQUARE"
       inkscape:label="square"><ellipse
         style="mix-blend-mode:multiply;stroke-width:0.4;stroke-linecap:butt;stroke-linejoin:bevel;stroke-dasharray:none;stroke-dashoffset:0;stroke-opacity:1;paint-order:normal"
         id="ellipse6436"
         ry="4.9985766"
         rx="4.9898057"
         cy="92.076538"
         cx="141.69933"
         class="outline"
         inkscape:label="squareButton" /><rect
         style="stroke-width:0.4;fill:none;stroke-linecap:round;stroke-linejoin:miter;stroke-dasharray:none;stroke-dashoffset:0;stroke-opacity:1;paint-order:normal"
         id="rect12996"
         width="5"
         height="5"
         x="139.14603"
         y="89.619339"
         class="icon"
         inkscape:label="icon" /></g><g
       id="g12876"
       class="controller-button"
       data-button-name="CIRCLE"
       inkscape:label="circle"><ellipse
         style="mix-blend-mode:multiply;stroke-width:0.4;stroke-linecap:butt;stroke-linejoin:bevel;stroke-dasharray:none;stroke-dashoffset:0;stroke-opacity:1;paint-order:normal"
         id="ellipse6440"
         ry="4.9985766"
         rx="4.9898057"
         cy="92.070602"
         cx="164.21719"
         class="outline"
         inkscape:label="circleButton" /><circle
         style="stroke-width:0.462992;stroke-linecap:round;stroke-linejoin:miter;stroke-dasharray:none;stroke-dashoffset:0;stroke-opacity:1;paint-order:normal"
         id="path12936"
         cx="164.30873"
         cy="92.069115"
         r="2.9834247"
         class="icon"
         inkscape:label="icon" /></g><g
       id="g12873"
       class="controller-button"
       data-button-name="TRIANGLE"
       inkscape:label="triangle"><ellipse
         style="mix-blend-mode:multiply;stroke-width:0.4;stroke-linecap:butt;stroke-linejoin:bevel;stroke-dasharray:none;stroke-dashoffset:0;stroke-opacity:1;paint-order:normal"
         id="ellipse6438"
         ry="4.9985766"
         rx="4.9898057"
         cy="80.819031"
         cx="152.95154"
         class="outline"
         inkscape:label="triangleButton" /><path
         style="stroke-width:0.485045;stroke-linecap:round;stroke-linejoin:miter;stroke-dasharray:none;stroke-dashoffset:0;stroke-opacity:1;paint-order:normal"
         d="m 150.11892,82.444138 2.86593,-4.891066 2.8609,4.861181 z"
         id="path12851"
         class="icon"
         inkscape:label="icon" /></g></g><g
     inkscape:groupmode="layer"
     id="layer3"
     inkscape:label="D-Pad"
     transform="translate(-28.440779,-62.585127)"><g
       id="g12817"
       data-button-name="D-PAD LEFT"
       class="controller-button"
       inkscape:label="left"><path
         style="stroke-width:0.4;stroke-linecap:butt;stroke-linejoin:bevel;stroke-dasharray:none;stroke-dashoffset:0;stroke-opacity:1;paint-order:normal"
         d="m 45.509317,94.935806 c -0.149758,-0.270822 -0.235195,-0.572828 -0.292325,-0.87698 -0.07309,-0.38915 -0.101694,-0.785335 -0.11693,-1.180997 -0.03534,-0.917866 7.95e-4,-1.839976 0.140317,-2.747864 0.03654,-0.237768 0.08052,-0.475863 0.163703,-0.701583 0.122079,-0.331272 0.328813,-0.630956 0.595139,-0.862721 0.266326,-0.231765 0.591689,-0.395128 0.936647,-0.470286 l 4.560287,0.309866 c 0.110818,0.01933 0.219158,0.05282 0.321559,0.09939 0.123492,0.05616 0.238296,0.131376 0.339098,0.222168 l 2.818024,2.625087 c 0.06196,0.05314 0.117119,0.114211 0.163703,0.181243 0.114012,0.164058 0.175054,0.364329 0.171933,0.564089 -0.0031,0.19976 -0.07039,0.398026 -0.189473,0.558442 l -2.853103,2.601704 c -0.06735,0.06141 -0.13219,0.125922 -0.204628,0.181242 -0.146545,0.111914 -0.330104,0.17449 -0.514493,0.175395 l -4.162724,0.409255 c -0.115503,-9.14e-4 -0.230935,-0.0107 -0.344945,-0.02923 -0.633946,-0.103058 -1.220985,-0.496162 -1.531789,-1.05822 z"
         id="path12053"
         inkscape:path-effect="#path-effect12055"
         inkscape:original-d="m 45.509317,94.935806 c -0.51086,-0.353004 -0.19462,-0.584388 -0.292325,-0.87698 -0.0977,-0.292589 -0.07769,-0.787066 -0.11693,-1.180997 -0.03924,-0.39393 0.09381,-1.831644 0.140317,-2.747864 0.04651,-0.916221 0.1094,-0.467458 0.163703,-0.701583 0.0543,-0.234124 1.531786,-1.333007 1.531786,-1.333007 0,0 4.560287,0.309866 4.560287,0.309866 0,0 0.214638,0.06652 0.321559,0.09939 0.106921,0.03287 0.339098,0.222168 0.339098,0.222168 0,0 2.818024,2.625087 2.818024,2.625087 0,0 0.1094,0.121095 0.163703,0.181243 0.0543,0.06015 -0.01754,1.122531 -0.01754,1.122531 0,0 -2.853103,2.601704 -2.853103,2.601704 0,0 -0.136154,0.121092 -0.204628,0.181242 -0.06847,0.06015 -0.514493,0.175395 -0.514493,0.175395 0,0 -4.162724,0.409255 -4.162724,0.409255 0,0 -0.229698,-0.01923 -0.344945,-0.02923 -0.115245,-0.01 -1.020927,-0.705215 -1.531789,-1.05822 z"
         class="outline"
         inkscape:label="outline" /><path
         style="stroke-width:0.4;stroke-linecap:round;stroke-linejoin:round;stroke-dasharray:none;stroke-dashoffset:0;stroke-opacity:1;paint-order:normal"
         d="m 48.616745,90.913399 -1.131303,1.137147 1.169305,1.140074 z"
         id="path12435"
         class="icon icon-solid"
         inkscape:label="arrow" /></g><g
       id="g12823"
       class="controller-button"
       data-button-name="D-PAD UP"
       inkscape:label="up"
       transform="rotate(90,57.448679,92.106087)"><path
         style="stroke-width:0.4;stroke-linecap:butt;stroke-linejoin:bevel;stroke-dasharray:none;stroke-dashoffset:0;stroke-opacity:1;paint-order:normal"
         d="m 45.509317,94.935806 c -0.149758,-0.270822 -0.235195,-0.572828 -0.292325,-0.87698 -0.07309,-0.38915 -0.101694,-0.785335 -0.11693,-1.180997 -0.03534,-0.917866 7.95e-4,-1.839976 0.140317,-2.747864 0.03654,-0.237768 0.08052,-0.475863 0.163703,-0.701583 0.122079,-0.331272 0.328813,-0.630956 0.595139,-0.862721 0.266326,-0.231765 0.591689,-0.395128 0.936647,-0.470286 l 4.560287,0.309866 c 0.110818,0.01933 0.219158,0.05282 0.321559,0.09939 0.123492,0.05616 0.238296,0.131376 0.339098,0.222168 l 2.818024,2.625087 c 0.06196,0.05314 0.117119,0.114211 0.163703,0.181243 0.114012,0.164058 0.175054,0.364329 0.171933,0.564089 -0.0031,0.19976 -0.07039,0.398026 -0.189473,0.558442 l -2.853103,2.601704 c -0.06735,0.06141 -0.13219,0.125922 -0.204628,0.181242 -0.146545,0.111914 -0.330104,0.17449 -0.514493,0.175395 l -4.162724,0.409255 c -0.115503,-9.14e-4 -0.230935,-0.0107 -0.344945,-0.02923 -0.633946,-0.103058 -1.220985,-0.496162 -1.531789,-1.05822 z"
         id="path12819"
         inkscape:path-effect="#path-effect12827"
         inkscape:original-d="m 45.509317,94.935806 c -0.51086,-0.353004 -0.19462,-0.584388 -0.292325,-0.87698 -0.0977,-0.292589 -0.07769,-0.787066 -0.11693,-1.180997 -0.03924,-0.39393 0.09381,-1.831644 0.140317,-2.747864 0.04651,-0.916221 0.1094,-0.467458 0.163703,-0.701583 0.0543,-0.234124 1.531786,-1.333007 1.531786,-1.333007 0,0 4.560287,0.309866 4.560287,0.309866 0,0 0.214638,0.06652 0.321559,0.09939 0.106921,0.03287 0.339098,0.222168 0.339098,0.222168 0,0 2.818024,2.625087 2.818024,2.625087 0,0 0.1094,0.121095 0.163703,0.181243 0.0543,0.06015 -0.01754,1.122531 -0.01754,1.122531 0,0 -2.853103,2.601704 -2.853103,2.601704 0,0 -0.136154,0.121092 -0.204628,0.181242 -0.06847,0.06015 -0.514493,0.175395 -0.514493,0.175395 0,0 -4.162724,0.409255 -4.162724,0.409255 0,0 -0.229698,-0.01923 -0.344945,-0.02923 -0.115245,-0.01 -1.020927,-0.705215 -1.531789,-1.05822 z"
                  class="outline"
                  inkscape:label="outline" /><path
         style="stroke-width:0.4;stroke-linecap:round;stroke-linejoin:round;stroke-dasharray:none;stroke-dashoffset:0;stroke-opacity:1;paint-order:normal"
         d="m 48.616745,90.913399 -1.131303,1.137147 1.169305,1.140074 z"
         id="path12821"
         class="icon icon-solid"
         inkscape:label="arrow" /></g><g
       id="g12833"
       class="controller-button"
       data-button-name="D-PAD RIGHT"
       inkscape:label="right"
       transform="rotate(180,57.53053,92.047623)"><path
         style="stroke-width:0.4;stroke-linecap:butt;stroke-linejoin:bevel;stroke-dasharray:none;stroke-dashoffset:0;stroke-opacity:1;paint-order:normal"
         d="m 45.509317,94.935806 c -0.149758,-0.270822 -0.235195,-0.572828 -0.292325,-0.87698 -0.07309,-0.38915 -0.101694,-0.785335 -0.11693,-1.180997 -0.03534,-0.917866 7.95e-4,-1.839976 0.140317,-2.747864 0.03654,-0.237768 0.08052,-0.475863 0.163703,-0.701583 0.122079,-0.331272 0.328813,-0.630956 0.595139,-0.862721 0.266326,-0.231765 0.591689,-0.395128 0.936647,-0.470286 l 4.560287,0.309866 c 0.110818,0.01933 0.219158,0.05282 0.321559,0.09939 0.123492,0.05616 0.238296,0.131376 0.339098,0.222168 l 2.818024,2.625087 c 0.06196,0.05314 0.117119,0.114211 0.163703,0.181243 0.114012,0.164058 0.175054,0.364329 0.171933,0.564089 -0.0031,0.19976 -0.07039,0.398026 -0.189473,0.558442 l -2.853103,2.601704 c -0.06735,0.06141 -0.13219,0.125922 -0.204628,0.181242 -0.146545,0.111914 -0.330104,0.17449 -0.514493,0.175395 l -4.162724,0.409255 c -0.115503,-9.14e-4 -0.230935,-0.0107 -0.344945,-0.02923 -0.633946,-0.103058 -1.220985,-0.496162 -1.531789,-1.05822 z"
         id="path12829"
         inkscape:path-effect="#path-effect12837"
         inkscape:original-d="m 45.509317,94.935806 c -0.51086,-0.353004 -0.19462,-0.584388 -0.292325,-0.87698 -0.0977,-0.292589 -0.07769,-0.787066 -0.11693,-1.180997 -0.03924,-0.39393 0.09381,-1.831644 0.140317,-2.747864 0.04651,-0.916221 0.1094,-0.467458 0.163703,-0.701583 0.0543,-0.234124 1.531786,-1.333007 1.531786,-1.333007 0,0 4.560287,0.309866 4.560287,0.309866 0,0 0.214638,0.06652 0.321559,0.09939 0.106921,0.03287 0.339098,0.222168 0.339098,0.222168 0,0 2.818024,2.625087 2.818024,2.625087 0,0 0.1094,0.121095 0.163703,0.181243 0.0543,0.06015 -0.01754,1.122531 -0.01754,1.122531 0,0 -2.853103,2.601704 -2.853103,2.601704 0,0 -0.136154,0.121092 -0.204628,0.181242 -0.06847,0.06015 -0.514493,0.175395 -0.514493,0.175395 0,0 -4.162724,0.409255 -4.162724,0.409255 0,0 -0.229698,-0.01923 -0.344945,-0.02923 -0.115245,-0.01 -1.020927,-0.705215 -1.531789,-1.05822 z"
                  class="outline"
                  inkscape:label="outline" /><path
         style="stroke-width:0.4;stroke-linecap:round;stroke-linejoin:round;stroke-dasharray:none;stroke-dashoffset:0;stroke-opacity:1;paint-order:normal"
         d="m 48.616745,90.913399 -1.131303,1.137147 1.169305,1.140074 z"
         id="path12831"
         class="icon icon-solid"
         inkscape:label="arrow" /></g><g
       id="g12843"
       class="controller-button"
       data-button-name="D-PAD DOWN"
       inkscape:label="down"
       transform="rotate(-90,57.483758,92.024238)"><path
         style="stroke-width:0.4;stroke-linecap:butt;stroke-linejoin:bevel;stroke-dasharray:none;stroke-dashoffset:0;stroke-opacity:1;paint-order:normal"
         d="m 45.509317,94.935806 c -0.149758,-0.270822 -0.235195,-0.572828 -0.292325,-0.87698 -0.07309,-0.38915 -0.101694,-0.785335 -0.11693,-1.180997 -0.03534,-0.917866 7.95e-4,-1.839976 0.140317,-2.747864 0.03654,-0.237768 0.08052,-0.475863 0.163703,-0.701583 0.122079,-0.331272 0.328813,-0.630956 0.595139,-0.862721 0.266326,-0.231765 0.591689,-0.395128 0.936647,-0.470286 l 4.560287,0.309866 c 0.110818,0.01933 0.219158,0.05282 0.321559,0.09939 0.123492,0.05616 0.238296,0.131376 0.339098,0.222168 l 2.818024,2.625087 c 0.06196,0.05314 0.117119,0.114211 0.163703,0.181243 0.114012,0.164058 0.175054,0.364329 0.171933,0.564089 -0.0031,0.19976 -0.07039,0.398026 -0.189473,0.558442 l -2.853103,2.601704 c -0.06735,0.06141 -0.13219,0.125922 -0.204628,0.181242 -0.146545,0.111914 -0.330104,0.17449 -0.514493,0.175395 l -4.162724,0.409255 c -0.115503,-9.14e-4 -0.230935,-0.0107 -0.344945,-0.02923 -0.633946,-0.103058 -1.220985,-0.496162 -1.531789,-1.05822 z"
         id="path12839"
         inkscape:path-effect="#path-effect12847"
         inkscape:original-d="m 45.509317,94.935806 c -0.51086,-0.353004 -0.19462,-0.584388 -0.292325,-0.87698 -0.0977,-0.292589 -0.07769,-0.787066 -0.11693,-1.180997 -0.03924,-0.39393 0.09381,-1.831644 0.140317,-2.747864 0.04651,-0.916221 0.1094,-0.467458 0.163703,-0.701583 0.0543,-0.234124 1.531786,-1.333007 1.531786,-1.333007 0,0 4.560287,0.309866 4.560287,0.309866 0,0 0.214638,0.06652 0.321559,0.09939 0.106921,0.03287 0.339098,0.222168 0.339098,0.222168 0,0 2.818024,2.625087 2.818024,2.625087 0,0 0.1094,0.121095 0.163703,0.181243 0.0543,0.06015 -0.01754,1.122531 -0.01754,1.122531 0,0 -2.853103,2.601704 -2.853103,2.601704 0,0 -0.136154,0.121092 -0.204628,0.181242 -0.06847,0.06015 -0.514493,0.175395 -0.514493,0.175395 0,0 -4.162724,0.409255 -4.162724,0.409255 0,0 -0.229698,-0.01923 -0.344945,-0.02923 -0.115245,-0.01 -1.020927,-0.705215 -1.531789,-1.05822 z"
                  class="outline"
                  inkscape:label="outline" /><path
         style="stroke-width:0.4;stroke-linecap:round;stroke-linejoin:round;stroke-dasharray:none;stroke-dashoffset:0;stroke-opacity:1;paint-order:normal"
         d="m 48.616745,90.913399 -1.131303,1.137147 1.169305,1.140074 z"
         id="path12841"
         class="icon icon-solid"
         inkscape:label="arrow" /></g></g><g
     inkscape:groupmode="layer"
     id="layer5"
     inkscape:label="Joysticks"
     transform="translate(-28.440779,-62.585127)"><ellipse
       style="display:inline;fill:none;fill-opacity:1;stroke:url(#radialGradient11987);stroke-width:3.535;stroke-linecap:butt;stroke-linejoin:bevel;stroke-dasharray:none;stroke-dashoffset:0;stroke-opacity:1;paint-order:normal"
       id="path11229"
       cx="80.638176"
       cy="113.07439"
       rx="7.1300979"
       ry="7.130096"
       inkscape:label="leftJoy" /><ellipse
       style="display:inline;fill:none;fill-opacity:1;stroke:url(#radialGradient11993);stroke-width:3.535;stroke-linecap:butt;stroke-linejoin:bevel;stroke-dasharray:none;stroke-dashoffset:0;stroke-opacity:1;paint-order:normal"
       id="ellipse11991"
       cx="129.83145"
       cy="113.07459"
       rx="7.1300979"
       ry="7.130096"
       inkscape:label="rightJoy" /></g></svg>
